<svg width="1167" height="129" viewBox="0 0 1167 129" fill="none" xmlns="http://www.w3.org/2000/svg">
<path d="M1105.35 122.334V19.5371H1128.06V61.1636H1144.05V19.5371H1166.77V122.334H1144.05V77.4081H1128.06V122.334H1105.35Z" fill="#FAF7FF"/>
<path d="M1050.21 123.857C1042.43 123.857 1036.25 122.461 1031.68 119.669C1027.2 116.792 1024.02 112.816 1022.16 107.74C1020.3 102.579 1019.37 96.5292 1019.37 89.5914V52.5337C1019.37 45.4267 1020.3 39.335 1022.16 34.2586C1024.02 29.0976 1027.2 25.1211 1031.68 22.329C1036.25 19.537 1042.43 18.141 1050.21 18.141C1057.82 18.141 1063.75 19.4101 1067.98 21.9483C1072.29 24.4019 1075.34 27.8708 1077.11 32.3549C1078.89 36.8391 1079.78 42.0001 1079.78 47.838V56.7217H1057.57V46.442C1057.57 44.4114 1057.44 42.4655 1057.19 40.6041C1057.02 38.7428 1056.43 37.2198 1055.41 36.0353C1054.4 34.7662 1052.66 34.1317 1050.21 34.1317C1047.84 34.1317 1046.06 34.7662 1044.88 36.0353C1043.78 37.3044 1043.06 38.912 1042.72 40.8579C1042.47 42.7193 1042.34 44.7075 1042.34 46.8227V95.1755C1042.34 97.4599 1042.51 99.575 1042.85 101.521C1043.27 103.382 1044.03 104.905 1045.13 106.09C1046.32 107.19 1048.01 107.74 1050.21 107.74C1052.58 107.74 1054.27 107.147 1055.29 105.963C1056.3 104.694 1056.94 103.086 1057.19 101.14C1057.44 99.1943 1057.57 97.206 1057.57 95.1755V84.3881H1079.78V93.2718C1079.78 99.1097 1078.89 104.355 1077.11 109.009C1075.42 113.577 1072.42 117.216 1068.1 119.923C1063.87 122.546 1057.91 123.857 1050.21 123.857Z" fill="#FAF7FF"/>
<path d="M961.816 122.334V36.4161H946.333V19.5371H1000.02V36.4161H984.66V122.334H961.816Z" fill="#FAF7FF"/>
<path d="M870.709 122.334L890.127 19.5371H916.016L935.18 122.334H914.24L910.813 100.633H895.711L892.157 122.334H870.709ZM897.741 87.0533H908.656L903.198 46.9497L897.741 87.0533Z" fill="#FAF7FF"/>
<path d="M785.332 122.334L772.895 19.5371H792.185L798.277 79.4387L806.019 19.664H821.121L829.243 79.0579L835.462 19.5371H854.498L842.188 122.334H822.39L813.633 60.2752L805.384 122.334H785.332Z" fill="#FAF7FF"/>
<path d="M723.478 123.604C716.625 123.604 711.252 122.292 707.36 119.669C703.553 116.962 700.845 113.239 699.238 108.501C697.715 103.679 696.954 98.1792 696.954 92.0029V49.3611C696.954 43.1002 697.757 37.6853 699.365 33.1166C701.057 28.4632 703.807 24.8674 707.614 22.3292C711.506 19.791 716.794 18.5219 723.478 18.5219C730.077 18.5219 735.28 19.791 739.088 22.3292C742.98 24.8674 745.729 28.4632 747.337 33.1166C748.944 37.6853 749.748 43.1002 749.748 49.3611V92.1298C749.748 98.3061 748.944 103.763 747.337 108.501C745.814 113.155 743.149 116.835 739.342 119.542C735.534 122.25 730.246 123.604 723.478 123.604ZM723.478 115.862C727.962 115.862 731.388 114.974 733.757 113.197C736.126 111.336 737.734 108.797 738.58 105.582C739.511 102.283 739.976 98.4753 739.976 94.1604V47.5843C739.976 43.2694 739.511 39.5044 738.58 36.2893C737.734 33.0743 736.126 30.6207 733.757 28.9285C731.388 27.1518 727.962 26.2634 723.478 26.2634C718.909 26.2634 715.398 27.1518 712.944 28.9285C710.575 30.6207 708.925 33.0743 707.995 36.2893C707.149 39.5044 706.726 43.2694 706.726 47.5843V94.1604C706.726 98.4753 707.149 102.283 707.995 105.582C708.925 108.797 710.575 111.336 712.944 113.197C715.398 114.974 718.909 115.862 723.478 115.862Z" fill="#FAF7FF"/>
<path d="M658.538 122.334V19.5371H668.183V122.334H658.538Z" fill="#FAF7FF"/>
<path d="M597.138 122.334V19.5371H606.783V115.1H635.973V122.334H597.138Z" fill="#FAF7FF"/>
<path d="M542.133 123.604C535.28 123.604 529.907 122.292 526.015 119.669C522.208 116.962 519.501 113.239 517.893 108.501C516.37 103.679 515.609 98.1792 515.609 92.0029V49.3611C515.609 43.1002 516.413 37.6853 518.02 33.1166C519.712 28.4632 522.462 24.8674 526.269 22.3292C530.161 19.791 535.449 18.5219 542.133 18.5219C548.732 18.5219 553.936 19.791 557.743 22.3292C561.635 24.8674 564.385 28.4632 565.992 33.1166C567.6 37.6853 568.403 43.1002 568.403 49.3611V92.1298C568.403 98.3061 567.6 103.763 565.992 108.501C564.469 113.155 561.804 116.835 557.997 119.542C554.189 122.25 548.902 123.604 542.133 123.604ZM542.133 115.862C546.617 115.862 550.044 114.974 552.413 113.197C554.782 111.336 556.389 108.797 557.235 105.582C558.166 102.283 558.631 98.4753 558.631 94.1604V47.5843C558.631 43.2694 558.166 39.5044 557.235 36.2893C556.389 33.0743 554.782 30.6207 552.413 28.9285C550.044 27.1518 546.617 26.2634 542.133 26.2634C537.564 26.2634 534.053 27.1518 531.6 28.9285C529.231 30.6207 527.581 33.0743 526.65 36.2893C525.804 39.5044 525.381 43.2694 525.381 47.5843V94.1604C525.381 98.4753 525.804 102.283 526.65 105.582C527.581 108.797 529.231 111.336 531.6 113.197C534.053 114.974 537.564 115.862 542.133 115.862Z" fill="#FAF7FF"/>
<path d="M456.119 122.334V19.5371H493.05V26.771H465.764V65.4786H488.481V72.5855H465.764V122.334H456.119Z" fill="#FAF7FF"/>
<path d="M403.572 122.334V27.0248H384.155V19.5371H432.127V27.0248H413.217V122.334H403.572Z" fill="#FAF7FF"/>
<path d="M315.106 122.334V19.5371H338.331C344.761 19.5371 349.795 20.5947 353.433 22.7098C357.156 24.7404 359.821 27.7439 361.429 31.7204C363.036 35.6124 363.84 40.2657 363.84 45.6806C363.84 49.4879 363.417 53.0837 362.571 56.4679C361.725 59.8522 360.286 62.7288 358.256 65.0978C356.225 67.4668 353.349 69.032 349.626 69.7935L365.363 122.334H355.972L340.869 71.8241H324.752V122.334H315.106ZM324.752 64.7171H337.823C342.138 64.7171 345.48 63.9979 347.849 62.5596C350.218 61.1213 351.91 59.0061 352.926 56.2141C353.941 53.4221 354.449 49.9109 354.449 45.6806C354.449 39.3351 353.349 34.5971 351.149 31.4666C348.949 28.3362 344.592 26.771 338.077 26.771H324.752V64.7171Z" fill="#FAF7FF"/>
<path d="M260.108 123.604C253.255 123.604 247.882 122.292 243.99 119.669C240.183 116.962 237.475 113.239 235.868 108.501C234.345 103.679 233.583 98.1792 233.583 92.0029V49.3611C233.583 43.1002 234.387 37.6853 235.995 33.1166C237.687 28.4632 240.437 24.8674 244.244 22.3292C248.136 19.791 253.424 18.5219 260.108 18.5219C266.707 18.5219 271.91 19.791 275.718 22.3292C279.61 24.8674 282.359 28.4632 283.967 33.1166C285.574 37.6853 286.378 43.1002 286.378 49.3611V92.1298C286.378 98.3061 285.574 103.763 283.967 108.501C282.444 113.155 279.779 116.835 275.971 119.542C272.164 122.25 266.876 123.604 260.108 123.604ZM260.108 115.862C264.592 115.862 268.018 114.974 270.387 113.197C272.756 111.336 274.364 108.797 275.21 105.582C276.141 102.283 276.606 98.4753 276.606 94.1604V47.5843C276.606 43.2694 276.141 39.5044 275.21 36.2893C274.364 33.0743 272.756 30.6207 270.387 28.9285C268.018 27.1518 264.592 26.2634 260.108 26.2634C255.539 26.2634 252.028 27.1518 249.574 28.9285C247.205 30.6207 245.555 33.0743 244.625 36.2893C243.779 39.5044 243.356 43.2694 243.356 47.5843V94.1604C243.356 98.4753 243.779 102.283 244.625 105.582C245.555 108.797 247.205 111.336 249.574 113.197C252.028 114.974 255.539 115.862 260.108 115.862Z" fill="#FAF7FF"/>
<path d="M161.701 122.334V19.5371H186.321C192.497 19.5371 197.362 20.6793 200.916 22.9636C204.469 25.248 206.965 28.4208 208.404 32.4819C209.926 36.543 210.688 41.3233 210.688 46.8228C210.688 51.6453 209.884 56.1295 208.277 60.2752C206.754 64.3364 204.173 67.5937 200.535 70.0473C196.982 72.5009 192.286 73.7277 186.448 73.7277H171.346V122.334H161.701ZM171.346 66.4938H183.656C187.802 66.4938 191.144 65.9016 193.682 64.7171C196.305 63.448 198.208 61.3751 199.393 58.4985C200.577 55.6219 201.17 51.73 201.17 46.8228C201.17 41.5771 200.662 37.516 199.647 34.6394C198.631 31.6781 196.855 29.6476 194.317 28.5477C191.863 27.3632 188.352 26.771 183.783 26.771H171.346V66.4938Z" fill="#FAF7FF"/>
<g clip-path="url(#clip0_16_141)">
<path d="M121.969 64.5C121.969 32.7626 96.2374 7.03093 64.5 7.03093C32.7626 7.03093 7.03093 32.7626 7.03093 64.5C7.03093 96.2374 32.7626 121.969 64.5 121.969V127.445C29.7383 127.437 1.56338 99.2617 1.56338 64.5C1.56338 29.7383 29.7383 1.56339 64.5 1.56339C99.2617 1.56339 127.437 29.7383 127.437 64.5C127.437 99.2617 99.2617 127.437 64.5 127.437V121.961C96.2374 121.961 121.969 96.2289 121.969 64.4915V64.5Z" fill="#FAF7FF"/>
<path d="M54.4188 7.34225L9.24297 83.3159L3.65703 79.9936L48.8318 4.01999L54.4188 7.34225Z" fill="#FAF7FF"/>
<path d="M83.7388 9.72198L9.76424 85.3538L5.11775 80.8089L79.0914 5.17706L83.7388 9.72198Z" fill="#FAF7FF"/>
<path d="M112.109 25.4743L10.6777 87.2497L7.29686 81.6979L108.728 19.9235L112.109 25.4743Z" fill="#FAF7FF"/>
<path d="M123.227 51.8521L11.1252 86.4595L9.20724 80.2495L121.31 45.6411L123.227 51.8521Z" fill="#FAF7FF"/>
<path d="M122.852 78.7977L122.777 85.2968L8.13761 83.9647L8.21378 77.4647L122.852 78.7977Z" fill="#FAF7FF"/>
<path d="M104.764 107.138L102.934 113.375L9.30244 85.9003L11.1325 79.6639L104.764 107.138Z" fill="#FAF7FF"/>
</g>
<defs>
<clipPath id="clip0_16_141">
<rect width="129" height="129" fill="white"/>
</clipPath>
</defs>
</svg>
