<svg width="1167" height="129" viewBox="0 0 1167 129" fill="none" xmlns="http://www.w3.org/2000/svg">
<path d="M1105.52 120.478V17.5925H1128.26V59.2548H1144.26V17.5925H1167V120.478H1144.26V75.5132H1128.26V120.478H1105.52Z" fill="#151517"/>
<path d="M1050.34 122.002C1042.55 122.002 1036.37 120.605 1031.79 117.811C1027.31 114.931 1024.13 110.952 1022.27 105.871C1020.41 100.705 1019.47 94.6507 1019.47 87.707V50.6174C1019.47 43.5043 1020.41 37.4074 1022.27 32.3267C1024.13 27.1612 1027.31 23.1813 1031.79 20.3869C1036.37 17.5924 1042.55 16.1952 1050.34 16.1952C1057.96 16.1952 1063.89 17.4654 1068.12 20.0058C1072.44 22.4615 1075.49 25.9334 1077.27 30.4214C1079.05 34.9094 1079.94 40.0748 1079.94 45.9177V54.809H1057.71V44.5205C1057.71 42.4882 1057.58 40.5406 1057.33 38.6776C1057.16 36.8147 1056.56 35.2904 1055.55 34.1049C1054.53 32.8347 1052.8 32.1996 1050.34 32.1996C1047.97 32.1996 1046.19 32.8347 1045 34.1049C1043.9 35.3751 1043.18 36.984 1042.85 38.9317C1042.59 40.7946 1042.46 42.7846 1042.46 44.9016V93.2958C1042.46 95.5822 1042.63 97.6992 1042.97 99.6468C1043.4 101.51 1044.16 103.034 1045.26 104.219C1046.44 105.32 1048.14 105.871 1050.34 105.871C1052.71 105.871 1054.4 105.278 1055.42 104.092C1056.44 102.822 1057.07 101.213 1057.33 99.2657C1057.58 97.3181 1057.71 95.3281 1057.71 93.2958V82.4992H1079.94V91.3906C1079.94 97.2334 1079.05 102.484 1077.27 107.141C1075.57 111.714 1072.57 115.355 1068.25 118.065C1064.02 120.69 1058.05 122.002 1050.34 122.002Z" fill="#151517"/>
<path d="M961.87 120.478V34.486H946.374V17.5925H1000.1V34.486H984.733V120.478H961.87Z" fill="#151517"/>
<path d="M870.688 120.478L890.122 17.5925H916.034L935.214 120.478H914.256L910.826 98.7577H895.711L892.154 120.478H870.688ZM897.743 85.1667H908.667L903.205 45.0286L897.743 85.1667Z" fill="#151517"/>
<path d="M785.234 120.478L772.786 17.5925H792.093L798.19 77.5455L805.938 17.7195H821.054L829.183 77.1645L835.407 17.5925H854.46L842.139 120.478H822.324L813.56 58.3656L805.303 120.478H785.234Z" fill="#151517"/>
<path d="M723.327 121.748C716.468 121.748 711.091 120.436 707.195 117.811C703.385 115.101 700.675 111.375 699.066 106.633C697.542 101.806 696.78 96.3021 696.78 90.1205V47.442C696.78 41.1758 697.584 35.7563 699.193 31.1836C700.887 26.5262 703.639 22.9274 707.449 20.387C711.345 17.8466 716.637 16.5764 723.327 16.5764C729.932 16.5764 735.14 17.8466 738.95 20.387C742.845 22.9274 745.597 26.5262 747.206 31.1836C748.815 35.7563 749.62 41.1758 749.62 47.442V90.2475C749.62 96.4291 748.815 101.891 747.206 106.633C745.682 111.29 743.015 114.974 739.204 117.684C735.394 120.393 730.101 121.748 723.327 121.748ZM723.327 114C727.815 114 731.244 113.111 733.615 111.333C735.986 109.47 737.595 106.929 738.442 103.712C739.374 100.409 739.839 96.5985 739.839 92.2798V45.6638C739.839 41.3451 739.374 37.5769 738.442 34.3591C737.595 31.1413 735.986 28.6856 733.615 26.992C731.244 25.2137 727.815 24.3246 723.327 24.3246C718.754 24.3246 715.24 25.2137 712.784 26.992C710.413 28.6856 708.762 31.1413 707.83 34.3591C706.984 37.5769 706.56 41.3451 706.56 45.6638V92.2798C706.56 96.5985 706.984 100.409 707.83 103.712C708.762 106.929 710.413 109.47 712.784 111.333C715.24 113.111 718.754 114 723.327 114Z" fill="#151517"/>
<path d="M658.331 120.478V17.5925H667.984V120.478H658.331Z" fill="#151517"/>
<path d="M596.879 120.478V17.5925H606.532V113.238H635.746V120.478H596.879Z" fill="#151517"/>
<path d="M541.826 121.748C534.967 121.748 529.59 120.436 525.695 117.811C521.884 115.101 519.175 111.375 517.566 106.633C516.041 101.806 515.279 96.3021 515.279 90.1205V47.442C515.279 41.1758 516.084 35.7563 517.693 31.1836C519.386 26.5262 522.138 22.9274 525.949 20.387C529.844 17.8466 535.137 16.5764 541.826 16.5764C548.431 16.5764 553.639 17.8466 557.45 20.387C561.345 22.9274 564.097 26.5262 565.706 31.1836C567.315 35.7563 568.119 41.1758 568.119 47.442V90.2475C568.119 96.4291 567.315 101.891 565.706 106.633C564.182 111.29 561.514 114.974 557.704 117.684C553.893 120.393 548.601 121.748 541.826 121.748ZM541.826 114C546.314 114 549.744 113.111 552.115 111.333C554.486 109.47 556.095 106.929 556.942 103.712C557.873 100.409 558.339 96.5985 558.339 92.2798V45.6638C558.339 41.3451 557.873 37.5769 556.942 34.3591C556.095 31.1413 554.486 28.6856 552.115 26.992C549.744 25.2137 546.314 24.3246 541.826 24.3246C537.254 24.3246 533.739 25.2137 531.284 26.992C528.913 28.6856 527.261 31.1413 526.33 34.3591C525.483 37.5769 525.06 41.3451 525.06 45.6638V92.2798C525.06 96.5985 525.483 100.409 526.33 103.712C527.261 106.929 528.913 109.47 531.284 111.333C533.739 113.111 537.254 114 541.826 114Z" fill="#151517"/>
<path d="M455.739 120.478V17.5925H492.701V24.8326H465.392V63.5734H488.128V70.6865H465.392V120.478H455.739Z" fill="#151517"/>
<path d="M403.146 120.478V25.0866H383.712V17.5925H431.725V25.0866H412.799V120.478H403.146Z" fill="#151517"/>
<path d="M314.605 120.478V17.5925H337.849C344.285 17.5925 349.323 18.651 352.965 20.768C356.69 22.8003 359.358 25.8064 360.967 29.7863C362.576 33.6816 363.38 38.3389 363.38 43.7584C363.38 47.569 362.957 51.1679 362.11 54.555C361.263 57.9422 359.824 60.8213 357.791 63.1924C355.759 65.5634 352.88 67.1299 349.154 67.8921L364.904 120.478H355.505L340.39 69.9244H324.258V120.478H314.605ZM324.258 62.8113H337.341C341.66 62.8113 345.005 62.0915 347.376 60.652C349.747 59.2124 351.44 57.0954 352.456 54.301C353.473 51.5066 353.981 47.9924 353.981 43.7584C353.981 37.4075 352.88 32.6654 350.678 29.5323C348.477 26.3991 344.116 24.8326 337.595 24.8326H324.258V62.8113Z" fill="#151517"/>
<path d="M259.559 121.748C252.7 121.748 247.323 120.436 243.427 117.811C239.617 115.101 236.907 111.375 235.298 106.633C233.774 101.806 233.012 96.3021 233.012 90.1205V47.442C233.012 41.1758 233.816 35.7563 235.425 31.1836C237.119 26.5262 239.871 22.9274 243.681 20.387C247.577 17.8466 252.869 16.5764 259.559 16.5764C266.164 16.5764 271.371 17.8466 275.182 20.387C279.077 22.9274 281.829 26.5262 283.438 31.1836C285.047 35.7563 285.852 41.1758 285.852 47.442V90.2475C285.852 96.4291 285.047 101.891 283.438 106.633C281.914 111.29 279.247 114.974 275.436 117.684C271.626 120.393 266.333 121.748 259.559 121.748ZM259.559 114C264.047 114 267.476 113.111 269.847 111.333C272.218 109.47 273.827 106.929 274.674 103.712C275.605 100.409 276.071 96.5985 276.071 92.2798V45.6638C276.071 41.3451 275.605 37.5769 274.674 34.3591C273.827 31.1413 272.218 28.6856 269.847 26.992C267.476 25.2137 264.047 24.3246 259.559 24.3246C254.986 24.3246 251.472 25.2137 249.016 26.992C246.645 28.6856 244.994 31.1413 244.062 34.3591C243.216 37.5769 242.792 41.3451 242.792 45.6638V92.2798C242.792 96.5985 243.216 100.409 244.062 103.712C244.994 106.929 246.645 109.47 249.016 111.333C251.472 113.111 254.986 114 259.559 114Z" fill="#151517"/>
<path d="M161.067 120.478V17.5925H185.709C191.89 17.5925 196.76 18.7357 200.316 21.022C203.873 23.3083 206.371 26.4838 207.81 30.5484C209.334 34.6131 210.097 39.3974 210.097 44.9016C210.097 49.7283 209.292 54.2163 207.683 58.3656C206.159 62.4302 203.576 65.6904 199.935 68.1461C196.378 70.6018 191.679 71.8297 185.836 71.8297H170.721V120.478H161.067ZM170.721 64.5896H183.041C187.191 64.5896 190.536 63.9968 193.076 62.8113C195.701 61.5411 197.606 59.4665 198.792 56.5874C199.977 53.7083 200.57 49.813 200.57 44.9016C200.57 39.6515 200.062 35.5869 199.046 32.7078C198.03 29.744 196.251 27.7117 193.711 26.6108C191.255 25.4253 187.741 24.8326 183.168 24.8326H170.721V64.5896Z" fill="#151517"/>
<g clip-path="url(#clip0_16_169)">
<path d="M123.233 64.4195C123.233 31.9367 96.9023 5.60577 64.4195 5.60577C31.9367 5.60577 5.60577 31.9367 5.60577 64.4195C5.60577 96.9023 31.9367 123.233 64.4195 123.233V128.839C28.8394 128.839 0 99.9995 0 64.4195C0 28.8394 28.8394 0 64.4195 0C99.9995 0 128.839 28.8394 128.839 64.4195C128.839 99.9995 99.9995 128.839 64.4195 128.839V123.233C96.9023 123.233 123.233 96.9023 123.233 64.4195Z" fill="#151517"/>
<path d="M54.2203 5.98375L7.97394 83.7484L2.02612 80.2099L48.2715 2.44625L54.2203 5.98375Z" fill="#151517"/>
<path d="M84.2053 8.45208L8.48913 85.858L3.54163 81.0186L79.2578 3.61271L84.2053 8.45208Z" fill="#151517"/>
<path d="M113.216 24.5933L9.40226 87.8191L5.80237 81.9077L109.616 18.6829L113.216 24.5933Z" fill="#151517"/>
<path d="M124.57 51.5999L9.82653 87.0259L7.7843 80.4136L122.528 44.9866L124.57 51.5999Z" fill="#151517"/>
<path d="M124.164 78.9201L124.06 85.8401L7.38831 84.0745L7.49229 77.1534L124.164 78.9201Z" fill="#151517"/>
<path d="M105.667 107.933L103.718 114.574L7.88232 86.4512L9.83096 79.8108L105.667 107.933Z" fill="#151517"/>
</g>
<defs>
<clipPath id="clip0_16_169">
<rect width="128.839" height="128.839" fill="white"/>
</clipPath>
</defs>
</svg>
