<svg xmlns="http://www.w3.org/2000/svg" viewBox="0 0 718 382" width="718" height="382">
<g transform="translate(0.000000,382.000000) scale(0.100000,-0.100000)" fill="#000000" stroke="none">
<path d="M2198 3645 c-117 -32 -229 -118 -272 -209 -43 -91 -58 -224 -35 -310
41 -152 139 -238 374 -325 33 -13 70 -27 83 -32 12 -5 32 -13 45 -18 74 -28
128 -62 173 -106 62 -62 80 -123 59 -211 -29 -126 -125 -194 -273 -194 -191 0
-341 117 -378 295 -8 37 -11 40 -44 40 l-35 0 0 -195 0 -195 29 -3 c19 -2 36
4 52 19 25 24 37 23 164 -4 36 -8 85 -17 110 -21 267 -37 477 62 572 270 19
42 22 67 22 179 1 127 0 132 -32 196 -58 119 -182 210 -372 272 -228 75 -332
145 -346 233 -16 106 27 188 123 235 40 19 64 23 148 23 87 0 107 -3 155 -26
91 -43 149 -113 174 -211 13 -50 15 -52 50 -55 l36 -3 -2 182 c-3 164 -5 182
-20 185 -10 1 -29 -7 -44 -18 -37 -30 -110 -26 -238 13 -42 13 -223 9 -278 -6z"/><path d="M3364 3203 c-8 -25 -73 -192 -89 -228 -7 -16 -20 -46 -28 -65 -8 -19
-30 -71 -47 -115 -18 -44 -40 -98 -50 -120 -10 -22 -37 -86 -59 -143 -89 -222
-133 -292 -185 -292 -9 0 -16 -8 -16 -20 0 -19 7 -20 150 -20 143 0 150 1 150
20 0 16 -7 20 -33 20 -18 0 -43 7 -56 16 -20 15 -23 23 -18 63 2 25 10 60 17
76 8 17 21 50 30 75 l16 45 183 0 183 0 24 -58 c59 -146 67 -178 51 -195 -9
-8 -33 -18 -54 -21 -24 -4 -38 -12 -38 -21 0 -13 67 -15 510 -18 368 -2 527 0
570 9 67 14 149 48 181 76 76 68 99 206 50 302 -28 53 -144 131 -196 131 -32
0 -23 15 18 29 107 39 172 119 172 213 0 68 -18 113 -62 154 -80 76 -124 84
-475 84 -286 0 -293 0 -293 -20 0 -15 7 -20 28 -20 16 0 37 -6 48 -14 18 -14
19 -30 19 -446 0 -500 9 -460 -106 -460 -94 0 -103 10 -179 205 -34 88 -66
169 -70 180 -4 11 -27 70 -50 130 -23 61 -47 121 -52 135 -11 25 -13 31 -43
110 -10 25 -30 83 -46 130 l-27 85 -61 3 c-52 2 -62 0 -67 -15z m1126 -75
c109 -56 124 -250 26 -334 -38 -33 -78 -44 -162 -44 -38 0 -53 4 -58 16 -3 9
-6 91 -6 184 0 93 3 175 6 184 10 26 138 22 194 -6z m-1101 -288 c18 -47 37
-94 41 -105 39 -95 51 -137 46 -150 -4 -12 -29 -15 -138 -15 -73 0 -139 4
-146 8 -13 9 5 62 87 244 11 26 21 50 21 52 0 2 7 20 16 41 20 49 30 38 73
-75z m1092 -151 c46 -14 88 -56 106 -106 7 -21 13 -76 13 -122 0 -72 -4 -90
-25 -128 -14 -23 -40 -50 -58 -59 -43 -23 -206 -32 -218 -13 -10 15 -11 423
-2 433 11 10 144 6 184 -5z"/><path d="M4955 3191 c-10 -18 4 -31 35 -31 21 0 35 -8 47 -27 17 -25 18 -61
18 -433 0 -368 -2 -408 -17 -432 -12 -18 -28 -28 -50 -30 -21 -2 -33 -8 -33
-18 0 -13 31 -15 213 -18 207 -2 212 -2 212 18 0 15 -7 20 -27 20 -66 1 -73
24 -73 256 l0 196 94 -4 c76 -3 99 -8 116 -23 38 -35 50 -70 50 -151 0 -161
34 -272 95 -311 47 -31 145 -32 194 -2 39 23 70 58 71 77 0 24 -31 25 -55 2
-55 -52 -83 3 -84 167 -1 151 -30 205 -133 253 -27 12 -48 23 -48 25 0 1 24
14 54 29 98 48 146 117 146 209 0 69 -18 112 -67 159 -71 67 -99 72 -445 76
-207 2 -308 0 -313 -7z m518 -71 c46 -32 69 -75 74 -145 13 -155 -67 -242
-212 -233 l-50 3 -3 204 -2 204 79 -5 c62 -4 87 -10 114 -28z"/><path d="M5960 3180 c0 -16 7 -20 33 -20 69 0 68 11 68 -460 0 -471 1 -460
-68 -460 -26 0 -33 -4 -33 -20 0 -20 5 -20 403 -18 l402 3 3 111 c2 90 0 113
-13 124 -21 18 -41 -1 -50 -47 -9 -51 -31 -80 -84 -111 -43 -25 -52 -26 -186
-27 l-140 0 0 215 0 215 65 3 c137 7 202 -24 225 -104 9 -32 15 -39 35 -39
l25 0 0 170 0 170 -25 0 c-20 0 -26 -7 -35 -39 -22 -79 -85 -109 -215 -104
l-75 3 0 200 0 200 125 0 c69 0 137 -3 152 -8 50 -14 96 -64 113 -123 14 -47
19 -55 38 -52 21 3 22 7 22 118 l0 115 -392 3 c-388 2 -393 2 -393 -18z"/><path d="M282 2303 c3 -26 7 -29 56 -34 62 -8 77 -24 89 -89 14 -78 10 -1109
-4 -1156 -14 -46 -38 -62 -98 -66 -35 -3 -40 -6 -43 -30 l-3 -28 315 0 316 0
0 30 c0 30 -1 30 -54 30 -50 0 -57 3 -78 33 -23 32 -23 35 -23 307 l0 275 95
3 c202 7 291 -43 309 -173 6 -38 8 -40 44 -43 l37 -3 -2 253 -3 253 -23 3
c-30 4 -52 -14 -52 -43 0 -61 -68 -146 -128 -162 -15 -4 -83 -7 -152 -7 l-125
-1 -3 303 -2 302 157 0 c209 0 273 -17 336 -90 30 -36 39 -56 65 -150 5 -17
16 -26 33 -28 45 -5 50 13 47 179 l-3 154 -553 3 -553 2 3 -27z"/><path d="M3412 1893 c-31 -84 -106 -273 -122 -308 -10 -22 -33 -76 -50 -120
-17 -44 -40 -98 -50 -120 -10 -22 -33 -76 -50 -120 -30 -76 -52 -127 -87 -203
-19 -39 -67 -82 -94 -82 -12 0 -19 -7 -19 -20 0 -19 7 -20 150 -20 143 0 150
1 150 20 0 16 -7 20 -32 20 -53 1 -73 23 -71 78 2 43 10 69 56 175 l12 27 179
-2 180 -3 38 -94 c56 -139 51 -181 -24 -181 -31 0 -38 -3 -38 -20 0 -20 5 -20
373 -18 323 3 372 5 372 18 0 10 -14 17 -43 21 -23 3 -48 11 -55 18 -15 15
-24 751 -9 751 9 0 70 -91 371 -553 64 -98 131 -198 149 -223 l34 -45 61 3 62
3 5 450 c6 517 4 507 80 515 31 3 45 10 45 20 0 13 -24 15 -147 18 -143 2
-148 2 -148 -18 0 -17 6 -20 38 -20 27 0 45 -7 58 -21 18 -20 19 -43 22 -335
2 -189 0 -314 -6 -314 -12 0 -354 518 -431 653 l-32 57 -163 0 c-89 0 -165 -3
-169 -6 -13 -13 7 -34 32 -34 15 0 36 -6 47 -14 18 -14 19 -30 19 -446 0 -497
8 -460 -99 -460 -93 1 -99 8 -186 235 -23 61 -46 119 -50 130 -4 11 -27 70
-50 130 -23 61 -46 120 -51 133 -5 12 -13 32 -18 45 -26 64 -71 187 -82 222
-26 88 -23 85 -88 85 -55 0 -59 -2 -69 -27z m28 -350 c23 -60 45 -117 50 -128
39 -98 49 -129 45 -133 -3 -3 -68 -7 -145 -10 -122 -4 -141 -2 -146 12 -5 14
46 161 66 191 4 6 22 47 40 93 18 45 36 82 40 82 4 0 27 -48 50 -107z"/><path d="M5405 1908 c-141 -50 -238 -147 -295 -293 -25 -63 -35 -132 -34 -240
0 -97 5 -133 23 -189 51 -157 150 -254 302 -295 51 -14 228 -10 314 7 40 8 55
7 76 -6 53 -30 59 -17 59 131 0 99 -3 137 -13 145 -19 16 -57 -13 -57 -44 0
-34 -36 -107 -71 -143 -77 -81 -221 -81 -296 1 -61 66 -91 169 -99 343 -17
354 74 555 253 555 92 0 166 -67 200 -181 16 -54 20 -59 45 -59 l28 0 0 140 0
140 -25 0 c-14 0 -28 -6 -31 -14 -9 -23 -27 -25 -85 -8 -64 19 -251 25 -294
10z"/><path d="M1482 1883 c2 -12 14 -19 35 -21 17 -2 39 -12 49 -24 18 -19 19 -45
19 -438 0 -397 -1 -419 -19 -439 -12 -13 -31 -21 -53 -21 -26 0 -33 -4 -33
-20 0 -19 7 -20 221 -20 205 0 220 1 217 18 -2 11 -14 18 -35 20 -17 2 -39 12
-49 24 -18 19 -19 45 -19 438 0 393 1 419 19 438 10 12 32 22 49 24 21 2 33 9
35 21 3 16 -12 17 -218 17 -206 0 -221 -1 -218 -17z"/><path d="M1990 1880 c0 -15 7 -20 28 -20 16 0 37 -6 48 -14 18 -14 19 -30 19
-446 0 -416 -1 -432 -19 -446 -11 -8 -32 -14 -47 -14 -28 0 -48 -27 -26 -36 7
-2 71 -3 143 -2 107 3 129 6 129 18 0 10 -14 17 -43 21 -23 3 -48 11 -55 18
-18 18 -24 753 -5 746 7 -3 63 -82 123 -175 182 -279 403 -614 415 -628 8 -9
32 -12 73 -10 l62 3 5 455 c5 415 7 458 23 483 14 22 25 27 57 27 33 0 40 3
40 20 0 19 -7 20 -151 20 -138 0 -150 -1 -147 -17 2 -13 15 -19 45 -21 79 -6
78 -2 81 -358 2 -188 0 -314 -6 -314 -11 0 -303 441 -438 662 l-29 48 -162 0
c-156 0 -163 -1 -163 -20z"/><path d="M5960 1880 c0 -16 7 -20 35 -20 65 0 65 3 66 -459 1 -464 1 -461 -66
-461 -28 0 -35 -4 -35 -20 0 -20 5 -20 403 -18 l402 3 3 111 c2 90 0 113 -13
124 -21 18 -41 -1 -50 -47 -9 -51 -31 -80 -83 -110 -42 -25 -52 -27 -186 -27
l-141 -1 0 215 0 215 65 3 c137 7 202 -24 225 -104 9 -32 15 -39 35 -39 l25 0
0 170 0 170 -25 0 c-19 0 -27 -7 -34 -30 -27 -91 -60 -110 -196 -110 l-95 0 0
200 0 200 85 3 c47 2 114 0 149 -3 57 -6 67 -11 105 -48 28 -29 45 -57 54 -90
10 -41 16 -48 35 -45 21 3 22 7 22 118 l0 115 -392 3 c-388 2 -393 2 -393 -18z"/><path d="M1170 578 c0 -35 -4 -69 -8 -75 -6 -10 -113 -13 -458 -15 l-449 -3
-3 -27 -3 -28 448 0 c336 0 452 -3 461 -12 7 -7 12 -42 12 -86 l0 -73 28 3
c26 3 27 4 30 78 2 44 8 78 15 82 7 4 1267 8 2800 8 l2788 0 -3 28 -3 27
-2795 5 -2795 5 -5 70 c-5 68 -6 70 -32 73 -28 3 -28 3 -28 -60z"/>
</g>
</svg>